<svg xmlns="http://www.w3.org/2000/svg" width="26.32" height="26.32" viewBox="0 0 26.32 26.32"><title>Instagram</title><g id="b9a2a3ad-6e12-404b-a4fb-01e168b14ef6" data-name="Layer 2"><g id="a14df635-e08b-4ae0-bfd1-5d9b6b1ea63c" data-name="Layer 1"><path d="M13.16,2.37c3.51,0,3.93,0,5.32.08a7.32,7.32,0,0,1,2.44.45,3.93,3.93,0,0,1,1.51,1,4.05,4.05,0,0,1,1,1.51,7.32,7.32,0,0,1,.45,2.44c.07,1.39.08,1.81.08,5.32s0,3.93-.08,5.32a7.32,7.32,0,0,1-.45,2.44,4.43,4.43,0,0,1-2.5,2.5,7.32,7.32,0,0,1-2.44.45c-1.39.07-1.81.08-5.32.08s-3.93,0-5.32-.08a7.32,7.32,0,0,1-2.44-.45,4.05,4.05,0,0,1-1.51-1,3.93,3.93,0,0,1-1-1.51,7.32,7.32,0,0,1-.45-2.44c-.07-1.39-.08-1.81-.08-5.32s0-3.93.08-5.32A7.32,7.32,0,0,1,2.9,5.4a3.93,3.93,0,0,1,1-1.51,3.93,3.93,0,0,1,1.51-1,7.32,7.32,0,0,1,2.44-.45c1.39-.07,1.81-.08,5.32-.08m0-2.37c-3.57,0-4,0-5.43.08A9.69,9.69,0,0,0,4.54.69,6.47,6.47,0,0,0,2.21,2.21,6.47,6.47,0,0,0,.69,4.54,9.69,9.69,0,0,0,.08,7.73C0,9.14,0,9.59,0,13.16s0,4,.08,5.43a9.69,9.69,0,0,0,.61,3.19,6.47,6.47,0,0,0,1.52,2.33,6.47,6.47,0,0,0,2.33,1.52,9.69,9.69,0,0,0,3.19.61c1.41.06,1.86.08,5.43.08s4,0,5.43-.08a9.69,9.69,0,0,0,3.19-.61,6.76,6.76,0,0,0,3.85-3.85,9.69,9.69,0,0,0,.61-3.19c.06-1.41.08-1.86.08-5.43s0-4-.08-5.43a9.69,9.69,0,0,0-.61-3.19,6.47,6.47,0,0,0-1.52-2.33A6.47,6.47,0,0,0,21.78.69,9.69,9.69,0,0,0,18.59.08C17.18,0,16.73,0,13.16,0Zm0,6.4a6.76,6.76,0,1,0,6.76,6.76A6.76,6.76,0,0,0,13.16,6.4Zm0,11.15a4.39,4.39,0,1,1,4.39-4.39A4.4,4.4,0,0,1,13.16,17.55Zm8.6-11.41a1.58,1.58,0,1,1-1.58-1.58A1.57,1.57,0,0,1,21.76,6.14Z" fill="#bcbcbc"/></g></g></svg>