<?xml version="1.0" standalone="no"?>
<!DOCTYPE svg PUBLIC "-//W3C//DTD SVG 20010904//EN"
 "http://www.w3.org/TR/2001/REC-SVG-20010904/DTD/svg10.dtd">
<svg version="1.0" xmlns="http://www.w3.org/2000/svg"
 width="700.000000pt" height="700.000000pt" viewBox="0 0 700.000000 700.000000"
 preserveAspectRatio="xMidYMid meet">
<metadata>
Created by potrace 1.11, written by Peter Selinger 2001-2013
</metadata>
<g transform="translate(0.000000,700.000000) scale(0.100000,-0.100000)"
fill="#000000" stroke="none">
<path d="M1690 6940 c-47 -31 -184 -123 -305 -202 -121 -80 -402 -265 -625
-412 -223 -147 -485 -320 -582 -384 l-178 -117 0 -2326 0 -2326 128 -84 c459
-301 759 -499 769 -508 7 -6 14 -11 16 -11 3 0 114 -73 248 -162 389 -258 473
-313 484 -317 6 -2 26 -17 46 -32 20 -16 40 -29 45 -29 4 0 16 -8 26 -17 18
-16 27 -10 196 104 170 115 381 257 857 578 121 81 330 222 464 313 172 116
248 162 257 156 7 -5 143 -97 301 -204 158 -107 383 -258 498 -336 116 -79
316 -213 445 -300 129 -87 237 -160 240 -163 3 -3 58 -41 122 -84 l117 -78 88
59 c48 32 178 119 288 193 110 75 326 220 480 324 154 103 321 216 370 250 50
34 186 126 303 204 l212 143 0 2326 -1 2327 -169 115 c-94 63 -178 120 -187
125 -9 6 -22 13 -27 18 -20 14 -119 82 -371 252 -334 225 -551 372 -718 486
-76 52 -168 113 -204 136 l-66 42 -151 -103 c-83 -56 -263 -179 -401 -272
-137 -92 -302 -204 -365 -246 -63 -43 -187 -127 -275 -186 -88 -59 -244 -165
-347 -235 -102 -70 -191 -127 -196 -127 -9 0 -72 41 -317 207 -55 38 -233 158
-395 267 -162 110 -329 223 -370 251 -89 61 -466 316 -488 330 -9 6 -45 31
-81 56 -36 25 -73 48 -81 51 -9 3 -50 -18 -100 -52z m161 -423 c35 -24 177
-119 314 -212 138 -93 376 -254 530 -358 154 -104 377 -254 495 -333 202 -137
817 -551 850 -574 44 -30 312 -211 595 -402 176 -118 388 -261 470 -317 l150
-102 5 1171 5 1171 260 -176 c143 -97 414 -281 603 -408 189 -128 374 -253
412 -280 l68 -47 1 -2105 c0 -1158 -2 -2105 -5 -2105 -6 0 -4197 2792 -4204
2801 -3 3 -10 8 -15 10 -14 5 -1179 782 -1185 790 -3 3 -10 8 -15 10 -6 2 -84
54 -174 114 -90 61 -171 115 -180 120 -115 70 -479 321 -473 327 13 13 1417
948 1423 948 4 0 35 -19 70 -43z m47 -4250 c59 -41 152 -105 207 -142 55 -38
231 -159 390 -268 160 -110 340 -234 400 -275 219 -150 240 -165 257 -179 18
-16 18 -16 -292 -227 -52 -35 -160 -110 -240 -165 -80 -55 -181 -125 -225
-155 -44 -30 -152 -104 -240 -165 -191 -132 -346 -236 -362 -245 -9 -5 -12
210 -12 944 0 522 2 950 5 950 3 0 54 -33 112 -73z"/>
</g>
</svg>
